<svg xmlns="http://www.w3.org/2000/svg" xmlns:xlink="http://www.w3.org/1999/xlink" width="500" zoomAndPan="magnify" viewBox="0 0 375 374.999991" height="500" preserveAspectRatio="xMidYMid meet" version="1.0"><defs><g/><clipPath id="770c1a700b"><path d="M 142.96875 99.527344 L 232.21875 99.527344 L 232.21875 249.527344 L 142.96875 249.527344 Z M 142.96875 99.527344 " clip-rule="nonzero"/></clipPath><clipPath id="fe5383d197"><path d="M 142.96875 180 L 184 180 L 184 249.417969 L 142.96875 249.417969 Z M 142.96875 180 " clip-rule="nonzero"/></clipPath><clipPath id="2cda72e0d7"><path d="M 190.738281 99.632812 L 232.046875 99.632812 L 232.046875 169 L 190.738281 169 Z M 190.738281 99.632812 " clip-rule="nonzero"/></clipPath></defs><rect x="-37.5" width="450" fill="#ffffff" y="-37.499999" height="449.999989" fill-opacity="1"/><rect x="-37.5" width="450" fill="#ffffff" y="-37.499999" height="449.999989" fill-opacity="1"/><g clip-path="url(#770c1a700b)"><path fill="#9039d7" d="M 225.800781 197.648438 L 173.644531 145.492188 C 171.636719 143.484375 171.636719 140.230469 173.644531 138.21875 L 183.933594 127.933594 L 183.933594 99.929688 L 144.472656 139.386719 C 143.511719 140.351562 142.96875 141.660156 142.96875 143.023438 C 142.96875 144.386719 143.511719 145.695312 144.472656 146.660156 L 154.839844 157.023438 L 201.371094 203.554688 C 203.378906 205.5625 203.378906 208.816406 201.371094 210.824219 L 190.785156 221.414062 L 190.785156 249.417969 L 219.007812 221.191406 L 230.539062 209.660156 C 231.507812 208.695312 232.046875 207.390625 232.046875 206.023438 C 232.046875 204.660156 231.507812 203.351562 230.539062 202.390625 L 225.800781 197.648438 " fill-opacity="1" fill-rule="nonzero"/></g><g clip-path="url(#fe5383d197)"><path fill="#080708" d="M 183.933594 221.113281 L 142.96875 180.152344 L 142.96875 208.15625 L 183.933594 249.117188 L 183.933594 221.113281 " fill-opacity="1" fill-rule="nonzero"/></g><g clip-path="url(#2cda72e0d7)"><path fill="#080708" d="M 190.785156 99.628906 L 190.785156 127.636719 L 232.046875 168.898438 L 232.046875 140.890625 L 190.785156 99.628906 " fill-opacity="1" fill-rule="nonzero"/></g><g fill="#ffffff" fill-opacity="1"><g transform="translate(155.323413, 328.74997)"><g><path d="M 9.828125 0.40625 C 8.472656 0.40625 7.21875 0.226562 6.0625 -0.125 C 4.914062 -0.488281 3.941406 -0.984375 3.140625 -1.609375 C 2.347656 -2.234375 1.789062 -2.9375 1.46875 -3.71875 L 3.34375 -5.671875 L 3.75 -5.671875 C 4.457031 -4.597656 5.304688 -3.789062 6.296875 -3.25 C 7.285156 -2.707031 8.460938 -2.4375 9.828125 -2.4375 C 11.410156 -2.4375 12.613281 -2.742188 13.4375 -3.359375 C 14.269531 -3.984375 14.6875 -4.847656 14.6875 -5.953125 C 14.6875 -6.804688 14.4375 -7.507812 13.9375 -8.0625 C 13.4375 -8.613281 12.625 -9.023438 11.5 -9.296875 L 7.875 -10.203125 C 5.9375 -10.671875 4.519531 -11.410156 3.625 -12.421875 C 2.726562 -13.441406 2.28125 -14.695312 2.28125 -16.1875 C 2.28125 -17.363281 2.578125 -18.382812 3.171875 -19.25 C 3.773438 -20.113281 4.640625 -20.78125 5.765625 -21.25 C 6.898438 -21.71875 8.238281 -21.953125 9.78125 -21.953125 C 11.757812 -21.953125 13.316406 -21.675781 14.453125 -21.125 C 15.597656 -20.570312 16.488281 -19.800781 17.125 -18.8125 L 15.328125 -17.046875 L 14.9375 -17.046875 C 14.25 -17.847656 13.5 -18.421875 12.6875 -18.765625 C 11.875 -19.117188 10.90625 -19.296875 9.78125 -19.296875 C 8.363281 -19.296875 7.273438 -19.039062 6.515625 -18.53125 C 5.765625 -18.03125 5.390625 -17.296875 5.390625 -16.328125 C 5.390625 -15.453125 5.65625 -14.75 6.1875 -14.21875 C 6.726562 -13.6875 7.660156 -13.257812 8.984375 -12.9375 L 12.5625 -12.078125 C 14.4375 -11.628906 15.789062 -10.890625 16.625 -9.859375 C 17.457031 -8.835938 17.875 -7.550781 17.875 -6 C 17.875 -4.738281 17.570312 -3.625 16.96875 -2.65625 C 16.375 -1.695312 15.46875 -0.945312 14.25 -0.40625 C 13.039062 0.132812 11.566406 0.40625 9.828125 0.40625 Z M 9.828125 0.40625 "/></g></g></g></svg>